<?xml version="1.0" encoding="UTF-8" standalone="no"?>
<!-- Created with Inkscape (http://www.inkscape.org/) -->

<svg
   xmlns:dc="http://purl.org/dc/elements/1.1/"
   xmlns:cc="http://creativecommons.org/ns#"
   xmlns:rdf="http://www.w3.org/1999/02/22-rdf-syntax-ns#"
   xmlns:svg="http://www.w3.org/2000/svg"
   xmlns="http://www.w3.org/2000/svg"
   xmlns:sodipodi="http://sodipodi.sourceforge.net/DTD/sodipodi-0.dtd"
   xmlns:inkscape="http://www.inkscape.org/namespaces/inkscape"
   width="200"
   height="40"
   viewBox="0 0 496.06299 748.7681"
   id="svg4148"
   version="1.1"
   inkscape:version="0.92.2 (5c3e80d, 2017-08-06)"
   sodipodi:docname="logo.svg">
  <defs
     id="defs4150" />
  <sodipodi:namedview
     id="base"
     pagecolor="#ffffff"
     bordercolor="#666666"
     borderopacity="1.0"
     inkscape:pageopacity="0.0"
     inkscape:pageshadow="2"
     inkscape:zoom="5.6"
     inkscape:cx="38.419195"
     inkscape:cy="34.240935"
     inkscape:document-units="px"
     inkscape:current-layer="layer1"
     showgrid="false"
     showguides="true"
     inkscape:guide-bbox="true"
     inkscape:window-width="1302"
     inkscape:window-height="745"
     inkscape:window-x="56"
     inkscape:window-y="-8"
     inkscape:window-maximized="1">
    <sodipodi:guide
       position="-648.57143,1105.7143"
       orientation="-0.70710678,0.70710678"
       id="guide4723"
       inkscape:locked="false" />
  </sodipodi:namedview>
  <metadata
     id="metadata4153">
    <rdf:RDF>
      <cc:Work
         rdf:about="">
        <dc:format>image/svg+xml</dc:format>
        <dc:type
           rdf:resource="http://purl.org/dc/dcmitype/StillImage" />
        <dc:title></dc:title>
      </cc:Work>
    </rdf:RDF>
  </metadata>
  <g
     inkscape:label="Camada 1"
     inkscape:groupmode="layer"
     id="layer1"
     transform="translate(0,-303.59409)">
    <g
       id="g50"
       transform="translate(-0.62847913,-0.53368564)">
      <path
         sodipodi:nodetypes="sccsscsccccssscccssccscscccssscsccccccs"
         style="fill:#cccccc;fill-opacity:1;stroke-width:4.15171385"
         d="m 163.6226,712.15279 c -9.91145,-14.3052 -22.17928,-33.0323 -27.26178,-41.6151 l -9.24113,-15.6058 h 66.44729 c 36.54602,0 65.83068,-1.5184 65.07713,-3.3742 -7.27963,-17.9262 -91.26125,-158.4693 -93.75953,-156.9062 -3.11545,1.9492 -42.95088,71.224 -58.30749,101.3979 l -7.096731,13.9439 -22.34716,-46.6005 -22.34731,-46.6005 c 27.83839,-48.8251 56.608271,-102.6097 82.750141,-144.8435 14.37664,-24.0326 27.50777,-43.6959 29.18048,-43.6959 1.67256,0 51.05634,84.2706 109.74167,187.2681 58.68517,102.9978 111.28768,195.2274 116.89429,204.9548 l 10.19393,17.6865 H 292.59505 181.64339 Z m 293.01498,-180.4953 c 0,-164.5313 1.044,-205.7034 5.13819,-202.5626 7.26798,5.5753 184.65706,151.063 192.38289,157.785 5.51995,4.8023 19.90803,-5.6281 106.87543,-77.4793 55.2731,-45.6659 101.88395,-83.0741 103.57955,-83.1289 1.69561,-0.054 3.08293,92.5982 3.08293,205.8956 v 205.995 h -41.10595 -41.10589 v -112.3609 c 0,-61.7988 -0.89741,-112.3612 -1.99552,-112.3612 -1.09749,0 -29.18355,21.437 -62.41338,47.6372 l -60.41778,47.6372 -24.93659,-19.6941 c -13.71531,-10.8318 -41.12223,-32.4236 -60.90447,-47.9826 l -35.96764,-28.2881 v 112.7061 112.7064 h -41.10589 -41.10588 z"
         id="path3359"
         inkscape:connector-curvature="0" />
      <path
         style="fill:#2e476f;fill-opacity:1;stroke-width:4.15171385"
         d="m 317.61886,1046.7087 c 0,-4.8551 5.4807,-6.2421 24.66353,-6.2421 19.18277,0 24.66353,1.387 24.66353,6.2421 0,4.8549 -5.48076,6.2421 -24.66353,6.2421 -19.18283,0 -24.66353,-1.3872 -24.66353,-6.2421 z m -677.10376,-22.7714 c -13.20781,-8.1527 -13.22468,-8.2078 -6.3158,-20.3953 l 6.92759,-12.22021 9.95315,7.9261 c 11.324,9.01791 25.42518,10.28301 32.6858,2.93231 9.37853,-9.49451 4.8385,-15.96031 -18.56351,-26.43851 -12.92298,-5.7858 -24.91816,-12.7847 -26.65595,-15.5531 -3.82335,-6.0907 -4.25987,-28.832 -0.73158,-38.1389 9.60578,-25.3429 77.67872,-24.5707 69.7279,0.7906 -2.28972,7.304 -5.76132,8.5624 -22.0843,8.0061 -16.69302,-0.5689 -19.36768,0.4618 -19.36768,7.4652 0,5.9854 5.41369,10.0836 20.55309,15.5585 23.43021,8.4737 30.82936,16.5135 30.82936,33.4985 0,37.74281 -42.40913,57.89491 -76.95749,36.56871 z m 172.39798,1.5213 c -19.60289,-10.1249 -30.89358,-28.50701 -32.72267,-53.27561 -3.07107,-41.5866 26.24068,-70.8379 67.96391,-67.8237 24.59576,1.7769 39.86293,11.1891 51.897099,31.9956 15.56447,26.9102 7.01423,64.95351 -19.012379,84.59321 -15.15246,11.4338 -50.22497,13.7559 -68.12596,4.5105 z m 53.48801,-29.58361 c 10.06659,-9.184 13.28807,-31.4044 6.60079,-45.5297 -20.64453,-43.6071 -77.4486,-10.2871 -58.93543,34.5701 9.1056,22.06301 34.36575,27.35271 52.33464,10.9596 z m 271.61912,32.28841 c -18.09905,-7.826 -23.2612,-22.8946 -25.17397,-73.48461 l -1.79135,-47.381 h 16.95955 16.95958 v 41.6151 c 0,36.0664 1.09623,42.7249 8.22118,49.9385 9.89389,10.01641 15.78537,10.40631 27.85953,1.84451 8.44901,-5.99131 9.13578,-9.74551 9.13578,-49.93801 v -43.4601 h 16.87536 16.87536 l -1.46059,49.8443 c -1.40064,47.79421 -1.9211,50.31011 -12.65659,61.17801 -9.42942,9.5461 -15.26603,11.5239 -36.99533,12.5364 -14.18963,0.6619 -29.85349,-0.5504 -34.80851,-2.6931 z m 183.6451,-3.6107 c -15.98055,-8.4692 -32.82057,-37.01231 -32.82057,-55.62971 0,-18.2452 12.20412,-44.3204 25.09196,-53.611 14.2116,-10.2448 34.96746,-14.1866 54.83488,-10.413 13.82229,2.6251 14.6167,3.6705 14.6167,19.2337 0,15.6382 -4.75953,21.333 -10.27638,12.2956 -1.39723,-2.2888 -9.69616,-4.1613 -18.44203,-4.1613 -12.28255,0 -17.84014,2.4951 -24.42081,10.9652 -18.59357,23.9305 -4.61337,59.78051 23.31211,59.78051 8.13594,0 18.17541,-3.09921 22.31002,-6.88731 7.17754,-6.576 7.51709,-6.0341 7.51709,11.99941 0,16.0679 -1.38021,19.261 -9.24878,21.3953 -17.14094,4.6509 -38.06264,2.6699 -52.47419,-4.9674 z m 156.99505,0.8227 C 433.38,1002.0039 433.6226,934.34369 479.0714,910.87089 c 20.47092,-10.5733 51.43526,-8.9508 68.01943,3.5633 35.32892,26.6582 35.26119,79.803 -0.1368,106.51351 -15.22162,11.4857 -50.22306,13.7554 -68.29423,4.4277 z m 53.65636,-29.50081 c 17.73515,-16.1801 11.56979,-52.1774 -10.79507,-63.0296 -10.22302,-4.9601 -13.64988,-4.8596 -25.24939,0.7411 -36.26929,17.5098 -20.00943,79.40241 18.65492,71.00921 5.65205,-1.2277 13.47735,-5.15101 17.38954,-8.72031 z m 260.18585,29.76531 c -16.02457,-8.459 -15.5299,-7.4577 -9.88113,-20.0092 5.69693,-12.65821 7.41755,-13.11401 18.23373,-4.8313 10.88947,8.3383 30.19598,8.0879 33.42593,-0.4333 3.89194,-10.26751 -3.55668,-18.94761 -21.57547,-25.14321 -32.3194,-11.1119 -40.33333,-37.8939 -18.0802,-60.4227 11.55444,-11.6974 14.23376,-12.5199 35.08464,-10.7696 28.14147,2.3629 33.23874,6.8188 25.31495,22.1295 -3.77006,7.2842 -6.98676,9.7246 -8.8326,6.7009 -3.44482,-5.6431 -29.69469,-6.4139 -33.01818,-0.9695 -4.77809,7.8265 2.81848,16.0029 19.51086,20.9999 25.6642,7.6831 31.64224,14.8456 31.64224,37.9118 0,16.99281 -1.78908,21.31651 -12.64716,30.56661 -14.85577,12.6548 -39.87475,14.4608 -59.17761,4.2708 z M -23.560191,967.63919 v -60.3418 h 16.4423696 16.44236 v 47.8577 47.85711 H 29.877489 c 20.09629,0 20.55296,0.2786 20.55296,12.4848 v 12.4846 h -36.99531 -36.99533 z m 665.915681,0 v -60.3418 h 36.99523 36.99537 v 12.4847 c 0,12.2073 -0.45623,12.4846 -20.55301,12.4846 -19.05989,0 -20.55288,0.7394 -20.55288,10.1758 0,9.1869 1.89704,10.2988 19.52528,11.4438 17.88062,1.1613 19.63491,2.2324 20.82606,12.713 1.26742,11.1515 0.76872,11.4437 -19.52534,11.4437 -20.39961,0 -20.826,0.2575 -20.826,12.4847 0,12.20721 0.45623,12.48451 20.55288,12.48451 20.09634,0 20.55301,0.2786 20.55301,12.4848 v 12.4846 h -36.99537 -36.99523 z m -372.00837,-83.982 c -24.66554,-12.9227 -82.03148,-70.195 -114.8453,-114.6582 l -23.74895,-32.1801 -99.710571,-1.1126 -99.71056,-1.1127 49.27009,-86.4835 49.27009,-86.484 -20.69543,-52.9268 c -27.46282,-70.2336 -35.03479,-103.7366 -33.11554,-146.5226 1.45238,-32.3788 2.20466,-34.7102 14.9061796,-46.1997 16.84177,-15.2345 35.0696804,-15.8062 62.0842004,-1.9474 21.05045,10.7993 56.320461,39.4852 69.665091,56.6603 l 8.05815,10.371 -10.38061,17.7952 -10.38047,17.7951 -33.374441,-32.8687 c -54.87743,-54.0455 -66.84653,-55.8042 -62.992,-9.2557 8.60313,103.8877 120.088721,317.875 223.341041,428.684 29.33485,31.4819 58.21334,54.1477 68.98897,54.1477 13.9339,0 11.78534,-37.3047 -5.45285,-94.6742 l -7.81521,-26.0098 h 21.88889 21.88895 l 8.56375,36.9288 c 18.47632,79.6737 5.1281,121.5267 -38.59514,121.0152 -9.44123,-0.112 -25.38749,-4.8213 -37.10833,-10.9622 z m 211.69528,2.8327 c 0,-2.3474 11.64668,-4.1613 26.71886,-4.1613 15.07218,0 26.71886,1.8139 26.71886,4.1613 0,2.3473 -11.64668,4.1616 -26.71886,4.1616 -15.07218,0 -26.71886,-1.8143 -26.71886,-4.1616 z m -850.89219,-358.3834 v -208.5691 l 79.12882,2.001 c 65.4723,1.6556 83.7402,3.5105 105.84775,10.7478 121.082729,39.6382 178.5142986,177.6474 121.406119,291.7415 -13.899,27.7678 -49.814519,65.9242 -78.512099,83.4104 -38.30719,23.3413 -66.66747,28.722 -152.85235,28.9972 l -75.01824,0.2409 v -208.5689 z m 175.53285,114.508 c 27.4207,-13.33 56.11543,-45.5128 65.15992,-73.0801 14.72812,-44.8917 -0.0551,-102.5462 -34.02959,-132.749 -25.96705,-23.0819 -45.22089,-30.259 -86.42831,-32.2172 l -38.02306,-1.8068 v 124.6484 c 0,68.5564 1.3873,126.0825 3.08298,127.8355 6.4281,6.6464 68.43928,-2.0336 90.23806,-12.6308 z"
         id="path3357"
         inkscape:connector-curvature="0" />
    </g>
  </g>
</svg>
