<?xml version="1.0" encoding="UTF-8" standalone="no"?>
<!-- Created with Inkscape (http://www.inkscape.org/) -->

<svg
   xmlns:dc="http://purl.org/dc/elements/1.1/"
   xmlns:cc="http://creativecommons.org/ns#"
   xmlns:rdf="http://www.w3.org/1999/02/22-rdf-syntax-ns#"
   xmlns:svg="http://www.w3.org/2000/svg"
   xmlns="http://www.w3.org/2000/svg"
   xmlns:sodipodi="http://sodipodi.sourceforge.net/DTD/sodipodi-0.dtd"
   xmlns:inkscape="http://www.inkscape.org/namespaces/inkscape"
   width="230"
   height="150"
   viewBox="0 0 744.09449 1052.3622"
   id="svg2"
   version="1.1"
   inkscape:version="0.91 r13725"
   sodipodi:docname="4_BNDS_A.svg">
  <defs
     id="defs4" />
  <sodipodi:namedview
     id="base"
     pagecolor="#ffffff"
     bordercolor="#666666"
     borderopacity="1.0"
     inkscape:pageopacity="0.0"
     inkscape:pageshadow="2"
     inkscape:zoom="0.7"
     inkscape:cx="264.79788"
     inkscape:cy="23.613463"
     inkscape:document-units="px"
     inkscape:current-layer="layer1"
     showgrid="false"
     inkscape:window-width="1304"
     inkscape:window-height="746"
     inkscape:window-x="54"
     inkscape:window-y="-8"
     inkscape:window-maximized="1" />
  <metadata
     id="metadata7">
    <rdf:RDF>
      <cc:Work
         rdf:about="">
        <dc:format>image/svg+xml</dc:format>
        <dc:type
           rdf:resource="http://purl.org/dc/dcmitype/StillImage" />
        <dc:title></dc:title>
      </cc:Work>
    </rdf:RDF>
  </metadata>
  <g
     inkscape:label="Camada 1"
     inkscape:groupmode="layer"
     id="layer1">
    <path
       inkscape:connector-curvature="0"
       id="path3426"
       d="m 606.61975,1034.9658 c -5.91334,-9.568 15.37436,-38.93147 47.30601,-65.25237 C 716.68986,917.97795 764.29445,836.30435 780.14794,753.15848 821.03297,538.73073 608.51501,325.07706 387.33389,358.24521 304.35058,370.68942 203.78795,431.97563 160.61133,496.41776 128.81591,543.87308 101.12044,549.2706 93.521439,509.49276 91.149799,497.07816 198.99959,377.36359 333.1877,243.46031 L 577.16583,2.6171875e-6 860.3286,273.94405 1143.4914,547.88808 891.62402,800.12522 c -138.5271,138.73033 -256.90418,252.23698 -263.06017,252.23698 -6.15599,0 -16.03076,-7.8284 -21.9441,-17.3964 z m -994.58801,-293.19809 0,-135.38753 79.07924,0 c 90.11202,0 127.62337,36.71801 96.64529,94.60094 -10.99342,20.5414 -11.18115,34.19596 -0.56035,40.75988 8.784,5.42895 15.97094,31.12777 15.97094,57.10866 0,53.64763 -42.95897,78.30538 -136.42428,78.30538 l -54.71084,0 0,-135.38733 z m 127.42342,47.78367 c 0,-13.27314 -14.15815,-23.89184 -31.85586,-23.89184 -17.69768,0 -31.85585,10.6187 -31.85585,23.89184 0,13.27332 14.15817,23.89184 31.85585,23.89184 17.69771,0 31.85586,-10.61852 31.85586,-23.89184 z M -269.5403,687.6889 c 4.84688,-7.84238 -1.19695,-18.10001 -13.43071,-22.79447 -23.35506,-8.9621 -41.28554,1.36564 -41.28554,23.78014 0,17.78762 43.59909,17.00227 54.71625,-0.98567 z m 115.18165,178.84745 c -5.84025,-5.84016 -10.61863,-67.26295 -10.61863,-136.49508 0,-120.99303 1.37363,-125.67913 35.4073,-120.78688 21.77413,3.13012 49.271066,29.6212 71.413618,68.80149 l 36.006384,63.71183 0.262005,-67.69377 c 0.220588,-56.98771 5.300126,-67.69376 32.117888,-67.69376 29.357352,0 31.855857,10.61869 31.855857,135.38753 0,120.19223 -3.246127,135.38733 -28.92287,135.38733 -17.3265909,0 -44.46758,-27.14093 -67.69369,-67.69376 l -38.770823,-67.69357 -4.89782,67.69357 c -4.556109,62.97133 -27.224709,86.00954 -56.159219,57.07507 z m 244.228194,-124.76864 0,-135.38753 70.772516,0 c 85.07385,0 120.36265,38.61035 120.36265,131.69146 0,81.19593 -56.04782,139.0834 -134.6634,139.0834 l -56.471766,0 0,-135.38733 z m 116.685026,37.35495 c 20.69237,-32.80417 0.14857,-109.03067 -29.38487,-109.03067 -17.40157,0 -23.58844,19.14744 -23.58844,73.00303 0,74.11365 20.25835,87.89171 52.97331,36.02764 z m 106.30605,-37.35495 0,-135.38753 87.60348,0 c 76.98496,0 87.60365,3.86134 87.60365,31.8559 0,25.788 -10.61869,31.85591 -55.74774,31.85591 -70.26085,0 -73.4767,28.12806 -3.98195,34.82857 33.17705,3.19895 51.7658,13.57064 51.7658,28.88307 0,15.31261 -18.58875,25.68411 -51.7658,28.88308 -73.36337,7.07356 -69.93628,50.75651 3.98195,50.75651 45.12905,0 55.74774,6.0679 55.74774,31.85591 0,27.99457 -10.61869,31.85591 -87.60365,31.85591 l -87.60348,0 0,-135.38733 z m 232.09259,110.35762 c -34.74702,-34.74685 -31.28324,-70.53784 6.82618,-70.53784 17.52081,0 31.85591,7.16746 31.85591,15.92796 0,20.42335 42.89488,20.79623 55.44988,0.48185 5.25024,-8.49513 -15.93012,-26.09041 -47.0677,-39.10055 -66.39044,-27.73976 -83.04688,-60.06026 -58.60126,-113.71242 29.1477,-63.9721 161.71458,-47.4711 161.71458,20.1293 0,11.38842 -14.3351,20.70632 -31.85591,20.70632 -17.52062,0 -31.85572,-7.16765 -31.85572,-15.92796 0,-8.76048 -10.75147,-15.92796 -23.89202,-15.92796 -39.11165,0 -27.10788,30.44178 16.29955,41.33638 41.39703,10.39002 87.23206,61.67017 87.23206,97.59501 0,33.82437 -61.19214,84.05962 -102.39373,84.05962 -21.27518,0 -49.94557,-11.26328 -63.71182,-25.02971 z"
       style="fill:#ffffff" />
  </g>
</svg>
