<?xml version="1.0" encoding="UTF-8" standalone="no"?>
<!-- Created with Inkscape (http://www.inkscape.org/) -->

<svg
   xmlns:dc="http://purl.org/dc/elements/1.1/"
   xmlns:cc="http://creativecommons.org/ns#"
   xmlns:rdf="http://www.w3.org/1999/02/22-rdf-syntax-ns#"
   xmlns:svg="http://www.w3.org/2000/svg"
   xmlns="http://www.w3.org/2000/svg"
   xmlns:sodipodi="http://sodipodi.sourceforge.net/DTD/sodipodi-0.dtd"
   xmlns:inkscape="http://www.inkscape.org/namespaces/inkscape"
   width="270"
   height="150"
   viewBox="0 0 744.09449 1052.3622"
   id="svg2"
   version="1.1"
   inkscape:version="0.91 r13725"
   sodipodi:docname="1-LogoBematech.svg">
  <defs
     id="defs4" />
  <sodipodi:namedview
     id="base"
     pagecolor="#ffffff"
     bordercolor="#666666"
     borderopacity="1.0"
     inkscape:pageopacity="0.0"
     inkscape:pageshadow="2"
     inkscape:zoom="1.979899"
     inkscape:cx="144.99526"
     inkscape:cy="36.432957"
     inkscape:document-units="px"
     inkscape:current-layer="layer1"
     showgrid="false"
     inkscape:window-width="1304"
     inkscape:window-height="746"
     inkscape:window-x="54"
     inkscape:window-y="-8"
     inkscape:window-maximized="1" />
  <metadata
     id="metadata7">
    <rdf:RDF>
      <cc:Work
         rdf:about="">
        <dc:format>image/svg+xml</dc:format>
        <dc:type
           rdf:resource="http://purl.org/dc/dcmitype/StillImage" />
        <dc:title></dc:title>
      </cc:Work>
    </rdf:RDF>
  </metadata>
  <g
     inkscape:label="Camada 1"
     inkscape:groupmode="layer"
     id="layer1">
    <path
       inkscape:connector-curvature="0"
       id="path3377"
       d="m -442.64502,986.02635 c -20.72619,-9.41038 -41.39071,-32.2187 -50.16767,-55.37224 -8.46891,-22.34031 -9.06586,-36.94255 -7.61802,-186.33509 l 0.87121,-89.89429 23.5228,1.03037 23.5228,1.03036 0.96183,57.41594 c 0.52852,31.5789 2.39433,58.84918 4.14581,60.60065 1.92271,1.9227 7.47281,-0.42399 14.00773,-5.92277 36.0928,-30.37008 89.92644,-13.72839 113.9686,35.23113 9.15135,18.63606 9.7957,22.81348 9.7957,63.50902 0,50.93039 -5.34472,70.89173 -25.18867,94.07508 -25.15382,29.38644 -73.18343,40.35899 -107.82165,24.63174 z m 62.4395,-55.10814 c 5.0283,-5.27087 10.81038,-13.99798 12.84891,-19.39364 4.71489,-12.47879 4.77831,-62.85811 0.10454,-79.70093 -8.2964,-29.87066 -44.58749,-41.22922 -65.36014,-20.45655 -24.6411,24.64111 -23.99094,92.63189 1.1256,117.74873 9.41771,9.41758 14.04409,11.38575 26.76418,11.38575 12.23685,0 17.24599,-1.95774 24.52086,-9.58336 z m 162.04129,53.39932 c -29.43324,-10.50367 -49.39254,-36.06057 -58.40403,-74.78376 -4.76079,-20.45738 -2.97875,-66.51501 3.41028,-88.13531 6.11825,-20.70421 24.93463,-45.41461 43.09086,-56.58852 14.19522,-8.73615 20.48945,-10.37747 40.07588,-10.44978 12.77966,-0.0466 29.01981,1.91621 36.08919,4.36328 17.0002,5.88438 37.88239,26.58539 47.53672,47.12384 8.26875,17.59116 16.974283,67.51148 13.398349,76.83024 -1.839895,4.79486 -10.706989,5.55116 -65.076359,5.55116 -70.58512,0 -70.4621,-0.0466 -63.13775,24.39876 5.4228,18.09953 21.64551,31.3909 38.13993,31.24817 14.34716,-0.12432 20.07709,-3.70603 31.12757,-19.45812 l 7.61616,-10.85658 21.87713,3.90234 c 26.95294,4.80785 29.035366,10.71838 12.45326,35.3459 -16.24861,24.13213 -40.82721,36.5337 -71.99707,36.3276 -12.71869,-0.082 -29.00865,-2.2528 -36.20012,-4.81922 z m 68.52545,-147.58274 c -0.44491,-21.56719 -14.46984,-35.62761 -35.5372,-35.62761 -12.66862,0 -17.1339,1.88367 -25.37338,10.7042 -11.76232,12.59152 -17.1505,33.72758 -9.80964,38.47911 2.64849,1.71445 19.71326,2.71876 37.92165,2.23206 l 33.10616,-0.88511 -0.30784,-14.90293 z m 467.27865,146.94405 c -16.34026,-8.93415 -23.12842,-15.93551 -30.03692,-30.98025 -7.85139,-17.09777 -8.32475,-39.54687 -1.19392,-56.61346 10.81712,-25.88897 20.43615,-31.77746 75.51434,-46.22778 21.33686,-5.59806 40.11189,-12.19211 41.72201,-14.65344 3.9351,-6.0153 0.29505,-20.5498 -6.94475,-27.73057 -5.55347,-5.5082 -16.30019,-7.57461 -35.03003,-6.73539 -4.67435,0.20907 -13.18519,5.76581 -19.66145,12.83624 -10.82479,11.81785 -12.24719,12.34286 -27.32049,10.08247 -8.74559,-1.31157 -18.47253,-4.26473 -21.6153,-6.56279 -5.29513,-3.87191 -5.29442,-5.18229 0.0104,-17.87584 12.89154,-30.85376 36.01544,-44.34547 76.83021,-44.82734 15.33339,-0.18119 33.79315,0.9247 41.02167,2.45649 14.93506,3.16544 36.25357,20.31175 41.76313,33.58982 2.03736,4.91031 4.95443,45.78018 6.48219,90.82198 1.52776,45.04172 3.23824,86.59875 3.80104,92.34873 l 1.0234,10.45461 -22.54867,0 c -20.57042,0 -22.92967,-0.76433 -26.89219,-8.71211 -5.4782,-10.98841 -6.54769,-10.9177 -25.09842,1.65591 -12.48728,8.46393 -19.52775,10.55383 -38.33344,11.37863 -16.34398,0.7168 -26.07407,-0.6505 -33.49136,-4.70591 z m 68.31067,-44.17597 c 13.4124,-9.02565 21.47173,-28.39351 19.84615,-47.69372 -0.9107,-10.8117 -2.08499,-12.18032 -9.74749,-11.3604 -16.48036,1.76327 -44.48654,11.22875 -52.55516,17.76229 -11.95469,9.68033 -11.19825,30.05807 1.52207,40.99968 12.09873,10.40698 25.7588,10.50449 40.93443,0.29164 z m 150.15454,42.72773 c -19.18274,-11.69549 -21.57069,-22.6404 -21.57069,-98.86845 0,-71.9243 -1.50348,-78.77012 -17.30034,-78.77012 -7.4763,0 -10.57852,-6.64278 -10.57852,-22.65159 0,-16.88494 3.16878,-22.65158 12.44721,-22.65158 11.49957,0 15.43165,-9.61422 15.43165,-37.73149 0,-18.89834 1.21656,-24.71699 5.51235,-26.36544 10.03744,-3.85188 38.84363,-2.2284 42.68964,2.40575 2.06373,2.48675 4.2161,16.99247 4.78285,32.23501 l 1.03036,27.71375 16.55307,1.06172 16.55308,1.06173 0,22.4607 0,22.46062 -11.91194,0 c -23.6486,0 -22.93664,-2.00507 -22.93664,64.59387 0,67.94378 1.82676,73.76445 21.7756,69.38297 13.32657,-2.9271 16.43517,1.80334 16.50453,25.1146 0.0464,17.02404 -0.51576,18.15283 -10.92133,21.7804 -17.82225,6.213 -45.05479,4.6965 -58.06099,-3.23326 z m 149.66504,2.28783 c -43.69407,-15.81231 -68.78622,-72.76961 -59.9729,-136.13446 4.56946,-32.85325 16.07682,-56.14796 36.70764,-74.30792 23.85154,-20.995 48.92579,-26.0377 81.44683,-16.37996 40.99577,12.17437 66.7957,55.92884 66.7957,113.27986 l 0,17.25273 -64.57921,0 c -73.37113,0 -72.86664,-0.21374 -62.64056,26.56289 6.95009,18.19845 21.7468,29.16183 39.38541,29.18186 11.24041,0.0121 18.85715,-5.6469 32.07662,-23.8341 4.83419,-6.65092 6.66874,-6.90386 24.394,-3.36399 10.5417,2.10535 21.01185,5.26502 23.26678,7.02153 12.0439,9.38138 -23.86664,53.52961 -49.80758,61.23318 -17.95352,5.3317 -51.63596,5.0746 -67.07273,-0.51122 z M 754.7521,850.11579 c 4.1982,-2.65669 4.29403,-5.47977 0.60403,-17.79684 -6.45581,-21.54753 -17.64802,-31.21177 -36.14681,-31.21177 -12.1963,0 -17.08788,1.98276 -24.83159,10.06556 -10.95883,11.43846 -17.26666,32.63166 -11.4451,38.45324 4.56065,4.56065 64.73847,4.97092 71.81981,0.49018 z M 901.35369,982.038 c -8.625,-3.9044 -20.14061,-11.31878 -25.59023,-16.4767 -39.76362,-37.63519 -43.98926,-132.00711 -8.02215,-179.1625 5.05351,-6.6256 17.42801,-16.5766 27.49882,-22.1135 15.94307,-8.76578 21.91512,-10.05696 46.18946,-9.98803 32.76682,0.093 50.42382,7.50201 67.71621,28.41328 10.6844,12.92062 20.6777,37.45239 16.8258,41.30437 -1.0744,1.07452 -11.1268,4.15229 -22.3386,6.8396 -19.57309,4.69157 -20.59349,4.59503 -25.61249,-2.42311 -2.875,-4.02019 -9.61463,-12.00818 -14.97701,-17.75124 -8.82264,-9.44902 -11.29686,-10.26749 -26.02143,-8.60788 -28.67647,3.23235 -41.18261,27.88753 -38.39867,75.70176 2.45594,42.18354 16.90196,62.72752 44.10817,62.72752 13.25146,0 30.59384,-14.43535 33.55854,-27.93318 1.2466,-5.67623 3.499,-11.08203 5.0052,-12.01284 5.34,-3.30028 46.05329,5.93456 47.94949,10.87614 3.228,8.41172 -9.8225,36.64723 -24.0951,52.13119 -23.46439,25.45587 -70.05444,33.74867 -103.79601,18.47512 z m -953.208281,-0.4635 c -0.960652,-2.50278 -1.330871,-53.14889 -0.823587,-112.54702 l 0.922325,-107.99665 23.522794,-1.03028 23.5228041,-1.03037 0,10.61369 c 0,13.31161 4.63683101,13.3842 19.5321629,0.30552 26.845378,-23.57052 70.717538,-21.16276 91.305982,5.01097 3.79918,4.83006 8.00088,8.78187 9.33708,8.78187 1.3361,0 8.86816,-5.51139 16.73767,-12.24751 35.22008,-30.14703 81.655,-21.5661 103.99306,19.21719 3.60173,6.57596 5.05897,31.10737 5.94308,100.04852 l 1.17126,91.33656 -8.36959,2.10059 c -4.60314,1.15597 -16.10654,1.61097 -25.56282,1.01297 l -17.19336,-1.08853 -1.93968,-80.15172 c -2.32591,-96.11371 -4.32029,-102.63381 -31.43029,-102.75 -8.53024,-0.0347 -14.71342,2.41983 -19.60244,7.78761 -15.40669,16.91511 -16.46155,22.66959 -18.36754,100.18966 l -1.8421,74.92445 -24.394014,0 -24.394007,0 -1.742427,-82.05924 C 66.458455,807.18692 64.820339,801.107 41.287901,801.107 c -15.666647,0 -26.554858,6.95205 -34.4428329,21.99183 -4.706538,8.97365 -6.21292299,25.54486 -7.82107099,86.03874 l -1.99183101,74.92445 -23.5706501,1.03163 c -16.948382,0.7423 -24.061204,-0.24748 -25.316805,-3.51894 z M 1072.8087,981.621 c -3.1204,-3.12045 -4.1819,-41.52277 -4.1819,-151.30634 0,-80.91853 0.9514,-149.60509 2.1154,-152.63678 1.645,-4.28685 7.4411,-5.51239 26.0701,-5.51239 28.8383,0 27.2669,-3.43219 28.4654,62.17523 l 0.8491,46.49334 13.5374,-10.76555 c 35.5101,-28.2393 82.0818,-20.46321 103.2054,17.23217 8.5789,15.30927 8.73,16.94875 9.8841,107.18321 l 1.1721,91.63646 -25.5661,-1.0304 -25.566,-1.0304 -2.172,-76.66692 c -1.1946,-42.16681 -2.3708,-79.48254 -2.6137,-82.92386 -0.2428,-3.44125 -4.2908,-10.10606 -8.9953,-14.8106 -10.1519,-10.15185 -32.2343,-11.67277 -45.2887,-3.11936 -16.2553,10.65091 -19.3396,26.9133 -19.3396,101.96985 0,48.96553 -1.2112,70.1409 -4.1819,73.11153 -2.2999,2.30007 -12.9636,4.18196 -23.6969,4.18196 -10.7334,0 -21.3971,-1.88189 -23.6971,-4.18196 z M 388.61623,604.18043 c -32.14063,-6.40272 -59.11831,-20.06226 -82.4549,-41.74949 -26.10554,-24.26017 -40.82941,-49.45811 -49.93094,-85.44946 -9.49798,-37.55945 -7.81595,-98.76506 3.82975,-139.36031 48.27806,-168.2894 217.48074,-296.212978 391.79651,-296.212978 67.48963,0 115.46312,17.174777 153.57005,54.979113 36.59485,36.304085 53.21461,85.348355 49.63926,146.483355 -4.89682,83.73266 -42.82032,156.41799 -121.0389,231.98691 C 629.44749,575.89422 496.49688,625.67137 388.61623,604.18024 Z M 506.47125,427.42777 c 38.25433,-14.39502 64.5067,-31.66319 90.61073,-59.60176 66.28991,-70.94859 71.32124,-170.02196 10.04766,-197.85182 -33.10894,-15.03774 -92.31379,-2.95446 -139.21035,28.41182 -58.92105,39.40887 -96.29733,100.83091 -96.24471,158.16299 0.0233,29.47563 5.43592,45.94077 20.30418,61.80827 25.33411,27.03681 59.54509,29.7471 114.49249,9.0705 z M -16.90657,601.03575 c -24.34022,-10.81811 -36.61053,-35.15973 -36.549665,-72.50673 0.156821,-96.06516 78.455673,-180.1023 168.974295,-181.35742 43.41217,-0.60173 68.01248,28.00061 67.91341,78.96213 -0.12081,61.72601 -43.17742,133.10975 -96.626334,160.19428 -36.049571,18.26773 -81.2723469,24.68096 -103.711706,14.70774 z"
       style="fill:#ffffff" />
  </g>
</svg>
