<?xml version="1.0" encoding="UTF-8" standalone="no"?>
<!-- Created with Inkscape (http://www.inkscape.org/) -->

<svg
   xmlns:dc="http://purl.org/dc/elements/1.1/"
   xmlns:cc="http://creativecommons.org/ns#"
   xmlns:rdf="http://www.w3.org/1999/02/22-rdf-syntax-ns#"
   xmlns:svg="http://www.w3.org/2000/svg"
   xmlns="http://www.w3.org/2000/svg"
   xmlns:sodipodi="http://sodipodi.sourceforge.net/DTD/sodipodi-0.dtd"
   xmlns:inkscape="http://www.inkscape.org/namespaces/inkscape"
   width="755"
   height="150"
   viewBox="0 0 744.09449 1052.3622"
   id="svg2"
   version="1.1"
   inkscape:version="0.91 r13725"
   sodipodi:docname="3-LogoElgin.svg">
  <defs
     id="defs4" />
  <sodipodi:namedview
     id="base"
     pagecolor="#ffffff"
     bordercolor="#666666"
     borderopacity="1.0"
     inkscape:pageopacity="0.0"
     inkscape:pageshadow="2"
     inkscape:zoom="0.7"
     inkscape:cx="224.23324"
     inkscape:cy="-23.98709"
     inkscape:document-units="px"
     inkscape:current-layer="layer1"
     showgrid="false"
     inkscape:window-width="1304"
     inkscape:window-height="746"
     inkscape:window-x="54"
     inkscape:window-y="-8"
     inkscape:window-maximized="1" />
  <metadata
     id="metadata7">
    <rdf:RDF>
      <cc:Work
         rdf:about="">
        <dc:format>image/svg+xml</dc:format>
        <dc:type
           rdf:resource="http://purl.org/dc/dcmitype/StillImage" />
        <dc:title />
      </cc:Work>
    </rdf:RDF>
  </metadata>
  <g
     inkscape:label="Camada 1"
     inkscape:groupmode="layer"
     id="layer1">
    <path
       inkscape:connector-curvature="0"
       id="path3482"
       d="m -2286.5512,526.18066 0,-526.1806573828124 464.0116,0 C -1501.9335,2.6171874e-6 -1339.4628,22.972223 -1296.8393,74.330503 c 95.7883,115.417817 17.5936,147.219387 -361.9873,147.219387 -196.9332,0 -350.7872,24.29273 -350.7872,55.3875 0,30.46313 120.7588,55.38743 268.3529,55.38743 282.1092,0 451.6841,110.80595 451.6841,295.14528 0,77.00398 -60.5304,92.56734 -360.0185,92.56734 -203.0874,0 -360.0185,24.14273 -360.0185,55.38693 0,30.60757 144.8384,55.38757 323.7403,55.38757 253.3989,0 345.5226,24.06883 423.9904,110.77512 99.6247,110.08414 96.7417,110.77514 -462.209,110.77514 l -562.4591,0 0,-526.18154 z m 1229.6018,459.71607 c -41.0179,-41.01789 -66.465,-242.47382 -66.465,-526.1807 l 0,-459.7160273828126 193.85619,0 193.8561,0 0,415.4060373828126 0,415.4059 240.6592,0 c 170.3177,0 269.9611,32.37851 340.9092,110.77512 99.498896,109.94524 96.741596,110.77514 -368.0504,110.77514 -290.3837,0 -493.55169,-25.2518 -534.76529,-66.46547 z m 1107.749286,0 c -41.0177998,-41.01789 -66.4649,-242.47382 -66.4649,-526.1807 l 0,-459.7160273828126 570.490904,0 C 1092.7429,2.6171874e-6 1258.2469,41.701753 1258.2469,177.23997 c 0,24.37047 -196.488,44.30992 -436.64011,44.30992 -481.3138,0 -488.8554,6.07693 -481.1615,387.71243 3.8572,191.33741 7.3267,194.07531 266.9987,210.73762 158.2491,10.15452 263.0906,-6.39979 263.0906,-41.54083 0,-32.1322 -87.2356,-58.42167 -193.8563,-58.42167 -184.6249,0 -193.8562,-9.23179 -193.8562,-193.85678 l 0,-193.85584 267.2824,0 c 348.59111,0 508.14241,153.29333 508.14241,488.21007 l 0,231.82731 -570.49111,0 c -369.8652,0 -593.864804,-23.3741 -636.955904,-66.46547 z M 1369.022,526.18066 l 0,-526.1806573828124 193.8555,0 193.8562,0 0,526.1806573828124 0,526.18154 -193.8562,0 -193.8555,0 0,-526.18154 z m 564.9516,459.71607 c -41.0179,-41.01789 -66.4648,-242.47382 -66.4648,-526.1807 l 0,-459.7160273828127 239.8547,0 C 2329.9981,2.6171874e-6 2360.8148,18.887743 2536.616,263.09053 l 189.3984,263.09013 16.8821,-263.09013 C 2758.1378,25.560373 2772.9357,2.6171874e-6 2895.2119,2.6171874e-6 3029.3611,2.6171874e-6 3030.6457,4.9903526 3030.6457,526.18129 l 0,526.18091 -180.0094,-2.1606 c -149.064,-1.7887 -213.3347,-47.016 -373.8656,-263.09049 l -193.8555,-260.92982 -16.8821,263.09045 c -14.8048,230.73026 -32.177,263.09046 -141.2381,263.09046 -68.3955,0 -154.2656,-29.9097 -190.8214,-66.46547 z"
       style="fill:#ffffff" />
  </g>
</svg>
