<?xml version="1.0" encoding="UTF-8" standalone="no"?>
<!-- Created with Inkscape (http://www.inkscape.org/) -->

<svg
   xmlns:dc="http://purl.org/dc/elements/1.1/"
   xmlns:cc="http://creativecommons.org/ns#"
   xmlns:rdf="http://www.w3.org/1999/02/22-rdf-syntax-ns#"
   xmlns:svg="http://www.w3.org/2000/svg"
   xmlns="http://www.w3.org/2000/svg"
   xmlns:sodipodi="http://sodipodi.sourceforge.net/DTD/sodipodi-0.dtd"
   xmlns:inkscape="http://www.inkscape.org/namespaces/inkscape"
   width="230"
   height="150"
   viewBox="0 0 744.09449 1052.3622"
   id="svg2"
   version="1.1"
   inkscape:version="0.91 r13725"
   sodipodi:docname="2-logo_daruma.svg">
  <defs
     id="defs4" />
  <sodipodi:namedview
     id="base"
     pagecolor="#ffffff"
     bordercolor="#666666"
     borderopacity="1.0"
     inkscape:pageopacity="0.0"
     inkscape:pageshadow="2"
     inkscape:zoom="0.98994949"
     inkscape:cx="166.76804"
     inkscape:cy="36.775882"
     inkscape:document-units="px"
     inkscape:current-layer="layer1"
     showgrid="false"
     inkscape:window-width="1304"
     inkscape:window-height="746"
     inkscape:window-x="54"
     inkscape:window-y="-8"
     inkscape:window-maximized="1" />
  <metadata
     id="metadata7">
    <rdf:RDF>
      <cc:Work
         rdf:about="">
        <dc:format>image/svg+xml</dc:format>
        <dc:type
           rdf:resource="http://purl.org/dc/dcmitype/StillImage" />
        <dc:title></dc:title>
      </cc:Work>
    </rdf:RDF>
  </metadata>
  <g
     inkscape:label="Camada 1"
     inkscape:groupmode="layer"
     id="layer1">
    <path
       inkscape:connector-curvature="0"
       id="path3407"
       d="m -90.780678,1049.5656 c -7.79681,-5.2061 -12.590942,-19.0122 -10.105302,-29.1013 1.371822,-5.5681 18.747072,-57.80883 38.611732,-116.0908 30.54807,-89.6267 37.85554,-107.5726 47.38853,-116.37932 9.1127504,-8.41869 13.4558904,-9.99369 22.6817904,-8.22556 6.2758896,1.20281 14.7662896,5.99092 18.8672796,10.64031 6.64653,7.53503 26.681494,61.24216 71.755371,192.3531 8.399397,24.43217 13.536477,45.23557 12.343847,49.98747 -4.64136,18.4929 -24.607684,25.8696 -35.77675,13.218 -3.104801,-3.517 -9.745652,-17.9048 -14.757402,-31.9728 l -9.112169,-25.57831 -46.8808366,0 -46.8809504,0 -9.8144,26.58841 c -5.39792,14.6235 -11.8254,29.0113 -14.28311,31.9728 -4.73839,5.7094 -17.33217,7.0654 -24.03763,2.588 z M 33.814612,942.75447 c 2.45867,-3.97829 -22.37813,-87.42118 -27.6659796,-92.94784 -1.79477,-1.87572 -4.06834,-2.60517 -5.05246,-1.62105 -4.54845,4.54834 -28.1342604,87.8007 -26.2590204,92.68761 1.62885,4.24468 8.4342,5.52181 29.4232404,5.52181 15.0173996,0 28.3167296,-1.63819 29.5542196,-3.64053 z M 157.6937,1049.5656 c -11.22244,-7.4934 -12.42266,-20.0692 -12.42266,-130.1638 0,-76.97827 1.31608,-114.40481 4.2494,-120.84281 6.50866,-14.28488 25.92358,-17.8492 84.09075,-15.43763 59.98123,2.4867 73.96683,7.77739 89.17973,33.73617 11.62954,19.8442 13.54372,55.02391 3.99829,73.48269 -6.73055,13.01543 -29.6798,34.13049 -37.09519,34.13049 -10.62919,0 -8.84756,7.29777 5.95435,24.38982 17.71477,20.45554 40.85052,66.78917 40.85052,81.81077 0,13.8717 -7.18641,21.6909 -19.93557,21.6909 -14.6206,0 -21.11424,-7.7711 -45.15033,-54.03259 -26.3041,-50.62634 -35.98194,-60.52963 -59.45603,-60.84016 l -17.35643,-0.22958 -0.89643,43.84845 c -1.01431,49.61388 -2.24731,57.43228 -10.33216,65.51718 -6.02381,6.0239 -18.85906,7.4934 -25.67824,2.9401 z M 269.59716,889.71148 c 18.93759,-9.79312 20.79295,-43.02268 3.21072,-57.50507 -6.23481,-5.13566 -14.87741,-6.39458 -43.89875,-6.39458 l -36.13555,0 0,34.71334 0,34.71332 33.06779,0 c 22.36901,0 36.52572,-1.78826 43.75579,-5.52701 z m 156.56276,156.93332 c -21.86335,-6.7321 -41.09998,-27.7643 -48.65136,-53.19287 -7.47419,-25.16839 -8.40577,-195.67139 -1.11973,-204.94013 7.73065,-9.83441 19.02562,-10.98859 29.20157,-2.98422 l 9.33915,7.34617 1.3911,90.46327 c 1.50425,97.83332 3.25747,107.02999 22.85044,119.86788 12.75448,8.3571 44.5308,7.7605 56.45466,-1.06 19.03024,-14.0775 20.38833,-21.31325 22.35694,-119.11346 1.81074,-89.96491 1.90341,-90.83058 10.45333,-97.74551 10.91652,-8.82874 16.95643,-8.79903 25.88317,0.12757 10.79332,10.79333 12.18751,26.38648 10.2402,114.53581 -1.41075,63.86567 -3.11771,84.81092 -8.01124,98.29864 -7.57694,20.88435 -32.20947,44.69875 -51.88561,50.16215 -19.36895,5.3783 -58.13346,4.5065 -78.50262,-1.7655 z m 192.51582,-2.4038 c -4.86205,-6.9417 -5.6882,-25.1921 -5.6882,-125.65954 0,-139.23082 -1.36105,-134.18202 36.17389,-134.18202 17.50602,0 24.29148,1.60163 29.67033,7.00356 4.79413,4.81473 12.23178,29.84405 23.79788,80.08424 9.25322,40.19444 18.3022,74.58895 20.10879,76.43224 4.32611,4.41425 4.41557,4.11508 21.78442,-72.7782 17.95879,-79.50485 20.06526,-85.24571 32.44531,-88.42307 25.07135,-6.43446 50.46789,-0.91962 55.39065,12.02823 1.98388,5.21802 3.52481,57.96766 3.52481,120.66258 0,126.73728 -1.32424,134.36518 -22.96002,132.25578 -19.21474,-1.8735 -20.77412,-9.4652 -20.83448,-101.43305 -0.0366,-54.70534 -1.27158,-80.81548 -3.70905,-78.378 -2.01027,2.01038 -11.52433,39.08793 -21.1423,82.39462 -9.61784,43.30669 -20.34335,83.09873 -23.83431,88.42663 -4.80939,7.3401 -9.36105,9.6872 -18.78694,9.6872 -20.35816,0 -24.55041,-9.3329 -43.7842,-97.47265 -9.57145,-43.86159 -18.88622,-81.31038 -20.69956,-83.21958 -1.96506,-2.06921 -3.29676,28.60513 -3.29676,75.93863 0,91.6758 -2.68801,104.7536 -21.53057,104.7536 -7.16428,0 -12.90501,-2.8036 -16.62969,-8.1212 z m 256.14161,1.4388 c -3.3261,-3.6752 -6.04736,-12.0783 -6.04736,-18.6735 0,-13.1561 69.5476,-219.00934 78.72403,-233.01434 11.95071,-18.23901 36.68572,-18.65427 49.79062,-0.83609 7.88206,10.71677 83.41936,223.42393 83.41936,234.90213 0,12.9556 -10.1252,24.3042 -21.6841,24.3042 -13.2321,0 -17.1098,-4.9851 -29.0593,-37.3574 l -9.8144,-26.58841 -47.36937,0 -47.36935,0 -9.13513,25.98141 c -5.0243,14.2897 -11.39178,28.6774 -14.14996,31.9728 -6.64677,7.941 -19.79438,7.6084 -27.30504,-0.6908 z M 1002.6016,941.03449 c 2.5021,-6.52037 -24.9904,-90.51344 -30.19457,-92.24809 -4.54113,-1.5137 -31.86462,85.27483 -29.10833,92.45767 2.89024,7.53161 56.40483,7.3425 59.3029,-0.20982 z m -1306.26135,98.36381 c -7.61633,-9.6825 -7.82355,-12.9705 -7.82355,-124.15064 0,-143.50899 -5.8831,-131.54773 64.54495,-131.22692 57.82055,0.26343 72.29195,3.8009 93.34002,22.81647 28.5384,25.78281 42.25394,71.11727 38.3315,126.69881 -3.60539,51.08799 -23.00616,88.20138 -54.97597,105.16808 -13.29993,7.0584 -22.00216,8.214 -70.38475,9.3472 l -55.20853,1.293 -7.82367,-9.946 z m 111.34734,-41.50347 c 16.53855,-10.08494 27.3133,-35.14918 29.62049,-68.90359 4.25415,-62.23669 -13.87375,-96.29915 -53.90819,-101.29375 -10.98645,-1.37075 -25.73049,-1.94471 -32.7646,-1.27537 l -12.78903,1.21667 -0.97857,88.61039 -0.97845,88.61052 30.2108,-0.014 c 23.22427,-0.012 32.84175,-1.6181 41.58755,-6.95114 z m 381.8529,-315.91019 c -2.997,-3.61119 -3.87036,-70.93066 -3.188,-245.73384 l 0.93999,-240.75996 45.67541,0 45.67553,0 1.13406,13.70263 c 1.30105,15.71989 3.41569,16.53408 16.40556,6.31626 30.36818,-23.88759 76.97838,-23.96972 112.37382,-0.19789 l 15.8103,10.61844 14.1353,-12.09924 c 29.50748,-25.25736 72.25916,-24.22709 96.40945,2.32328 20.25365,22.26653 19.61106,14.10239 19.61106,249.16266 0,194.69225 -0.59905,217.43545 -5.77992,219.42359 -9.66955,3.71047 -74.61118,2.47381 -82.15711,-1.56471 -6.84155,-3.66148 -7.06782,-9.57097 -7.06782,-184.60706 l 0,-180.82452 -9.28234,-4.22929 c -12.66372,-5.76996 -28.03758,-0.0119 -31.30439,11.72682 -1.39324,5.00631 -2.69712,87.44248 -2.89747,183.19157 -0.32449,155.1604 -0.99265,174.33029 -6.14417,176.30719 -8.39727,3.22232 -75.63557,2.61452 -80.90176,-0.73134 -3.39675,-2.15808 -4.7088,-45.95293 -5.48097,-182.94225 -0.97763,-173.44391 -1.27762,-180.29658 -8.10816,-185.28941 -9.83087,-7.18594 -19.01736,-6.47967 -27.62043,2.12339 -7.10629,7.1063 -7.30806,12.18007 -7.30806,183.79796 0,132.3978 -1.09548,177.58529 -4.38478,180.8747 -6.4992,6.4992 -81.08376,5.99163 -86.5451,-0.58898 z m 514.54806,1.28791 c -40.5665,-6.86867 -75.22953,-36.04527 -86.66842,-72.95063 -5.47991,-17.67998 -6.25966,-38.85539 -6.25966,-170.01083 0,-169.61332 0.48791,-173.17882 27.96395,-204.39328 19.36836,-22.00369 40.07976,-33.73428 67.04102,-37.97068 57.2395,-8.99418 110.40296,14.98878 130.17024,58.72221 8.25586,18.26505 8.68306,22.98546 8.68306,95.94495 l 0,76.73473 -9.997,17.00564 c -14.9128,25.36816 -33.60956,33.20697 -80.85052,33.89761 -20.39377,0.2981 -39.12698,1.80731 -41.62919,3.3538 -5.55151,3.43096 -6.36369,70.21386 -1.02485,84.25637 4.88916,12.85933 20.43686,16.36969 30.02702,6.77954 5.38169,-5.38169 7.94343,-14.41966 9.71618,-34.27936 l 2.40754,-26.97085 45.67541,0 45.67541,0 1.04615,37.8895 c 0.71194,25.78741 -0.71633,43.95225 -4.47189,56.87074 -11.38374,39.15871 -40.63169,64.90779 -84.07355,74.01606 -24.4349,5.12311 -29.12393,5.22004 -53.4309,1.10448 z m 41.07003,-291.03021 c 5.85743,-5.30098 6.68227,-12.25887 6.68227,-56.37228 0,-50.01465 -0.0592,-50.37168 -9.6279,-57.89832 -11.90753,-9.36636 -16.45976,-9.464 -27.42113,-0.58803 -8.33136,6.74628 -8.62638,8.75644 -8.62638,58.75912 0,47.03325 0.64945,52.24879 7.09291,56.96045 9.49228,6.94083 23.70307,6.55729 31.90023,-0.86094 z M -307.41023,678.98799 c -40.32531,-6.29908 -73.11228,-32.87074 -89.00009,-72.12827 -8.15892,-20.16005 -8.26271,-22.57658 -9.31382,-216.89864 l -1.06306,-196.51151 48.56555,1.02058 48.56543,1.02069 1.82695,187.0894 c 1.14826,117.58369 3.18456,188.3612 5.48109,190.51265 8.10769,7.59552 19.17073,7.99326 27.80954,0.99987 l 8.73087,-7.06794 1.01052,-186.78597 1.01051,-186.78585 48.31893,1.01892 48.31892,1.01892 0,193.66385 c 0,177.32599 -0.55679,195.25992 -6.60061,212.58369 -19.72278,56.533 -72.18365,86.85291 -133.66073,77.24961 z M 983.59549,675.78828 C 956.56666,665.3895 936.75584,646.67463 922.82041,618.37517 l -12.02904,-24.42815 -1.82707,-221.15231 -1.82696,-221.15233 -656.81279,-0.92342 -656.81269,-0.92353 0,-36.5204 0,-36.520506 656.81269,-0.923419 656.81279,-0.923418 1.04129,-37.453878 1.04141,-37.453878722656 47.37455,0 47.37471,0 0,32.587442722656 c 0,17.923164 0.9981,35.188468 2.218,38.367355 1.917,4.995665 11.8339,5.779914 73.0806,5.779914 l 70.8628,0 0,34.149658 0,34.14966 -68.1885,2.53901 c -37.5037,1.39643 -69.5678,3.39143 -71.2537,4.43332 -1.6858,1.04186 -3.0652,94.33528 -3.0652,207.31868 0,226.42347 -0.4705,221.6665 21.9242,221.6665 17.8938,0 21.9242,-10.48931 21.9242,-57.05962 0,-33.84932 0.9867,-41.19607 5.7799,-43.03533 3.179,-1.21999 25.5462,-2.21807 49.705,-2.21807 l 43.9251,0 -1.4472,59.37816 c -1.2789,52.46679 -2.4437,61.62334 -10.0069,78.66924 -10.7991,24.33845 -37.8305,49.08885 -64.5184,59.07415 -26.2955,9.8383 -65.724,9.83323 -91.31371,-0.0119 z M -95.895158,436.65706 l 0,-243.21163 46.58889,1.0227 46.5888904,1.02271 1.14507,11.87557 c 0.62980002,6.53162 2.11015002,11.87557 3.28989,11.87557 1.17963,0 10.6298996,-4.15131 21.0005196,-9.22519 29.14429,-14.25897 51.696963,-15.56203 76.086653,-4.39592 16.053845,7.34959 22.255885,12.82111 30.549485,26.95108 9.92328,16.90661 10.46682,20.19508 11.71414,70.86391 1.07916,43.84017 0.35183,53.92783 -4.15745,57.67038 -3.84349,3.18977 -18.32493,4.2294 -48.795713,3.50302 l -43.330115,-1.03288 -1.82695,-27.40528 c -1.00495,-15.07289 -3.04481,-29.27849 -4.53307,-31.56792 -4.91354,-7.55882 -21.29625,-9.30247 -30.5337396,-3.24977 l -8.71478998,5.71009 -0.94696002,185.37995 -0.94697,185.37995 -46.5888904,1.0227 -46.58889,1.02259 0,-243.21163 z"
       style="fill:#ffffff" />
  </g>
</svg>
